<svg width="158" height="20" viewBox="0 0 158 20" fill="none" xmlns="http://www.w3.org/2000/svg">
<path d="M19.3025 9.96C19.3025 12.1467 19.0625 13.8667 18.5825 15.12C18.1025 16.3467 17.4092 17.24 16.5025 17.8C15.6225 18.36 14.5292 18.72 13.2225 18.88C11.9425 19.0133 10.4892 19.08 8.8625 19.08C8.08917 19.08 7.27583 19.0667 6.4225 19.04C5.59583 19.04 4.76917 19.04 3.9425 19.04C3.1425 19.04 2.40917 19.0267 1.7425 19C1.1025 19 0.5825 19 0.1825 19V3.16C0.1825 2.30667 0.289167 1.68 0.5025 1.28C0.7425 0.879999 1.3425 0.653332 2.3025 0.6C2.72917 0.573333 3.28917 0.559999 3.9825 0.559999C4.67583 0.559999 5.40917 0.559999 6.1825 0.559999C6.9825 0.533333 7.75583 0.52 8.5025 0.52C9.24917 0.52 9.87583 0.533333 10.3825 0.559999C11.8492 0.613332 13.1292 0.733332 14.2225 0.919999C15.3425 1.10667 16.2758 1.50667 17.0225 2.12C17.7958 2.73333 18.3692 3.66667 18.7425 4.92C19.1158 6.14667 19.3025 7.82667 19.3025 9.96ZM3.2625 17.28C3.44917 17.28 3.7825 17.2933 4.2625 17.32C4.76917 17.32 5.31583 17.32 5.9025 17.32C6.48917 17.32 7.04917 17.3333 7.5825 17.36C8.1425 17.36 8.56917 17.36 8.8625 17.36C10.2225 17.36 11.3692 17.2667 12.3025 17.08C13.2358 16.8933 13.9825 16.5467 14.5425 16.04C15.1292 15.5067 15.5425 14.76 15.7825 13.8C16.0492 12.8133 16.1825 11.5333 16.1825 9.96C16.1825 7.82667 15.9558 6.21333 15.5025 5.12C15.0758 4 14.3425 3.24 13.3025 2.84C12.2892 2.44 10.8625 2.24 9.0225 2.24C8.64917 2.24 8.11583 2.24 7.4225 2.24C6.75583 2.24 6.08917 2.25333 5.4225 2.28C4.75583 2.28 4.23583 2.30667 3.8625 2.36C3.67583 2.46667 3.52917 2.61333 3.4225 2.8C3.31583 2.96 3.2625 3.29333 3.2625 3.8V17.28ZM24.4059 19V1.88C24.4059 1.4 24.4726 1.06667 24.6059 0.88C24.7393 0.693333 25.0326 0.6 25.4859 0.6H41.3659V2.36H27.4859V8.48H40.2059V10.24H27.4859V17.24H41.3659V19H24.4059ZM50.3628 19C49.9095 19 49.5228 18.9467 49.2028 18.84C48.8828 18.7067 48.6028 18.4933 48.3628 18.2C48.1495 17.9067 47.9495 17.5067 47.7628 17L43.0428 3.04H45.9628L49.4828 14.48C49.6961 15.1467 49.9361 15.6 50.2028 15.84C50.4961 16.0533 51.0161 16.16 51.7628 16.16C52.4028 14.1067 53.0028 12.0533 53.5628 10C54.1495 7.94667 54.7495 5.90667 55.3628 3.88C55.4428 3.61333 55.5628 3.41333 55.7228 3.28C55.8828 3.12 56.1361 3.04 56.4828 3.04H57.5628L52.4028 19H50.3628ZM69.6791 19.28C67.8391 19.28 66.2924 19.1333 65.0391 18.84C63.7857 18.5467 62.7724 18.04 61.9991 17.32C61.2524 16.5733 60.7057 15.6 60.3591 14.4C60.0124 13.1733 59.8391 11.6533 59.8391 9.84C59.8391 7.84 60.0657 6.22667 60.5191 5C60.9724 3.74667 61.6257 2.78667 62.4791 2.12C63.3591 1.45333 64.4257 0.999999 65.6791 0.759999C66.9324 0.493332 68.3724 0.359999 69.9991 0.359999C71.3324 0.359999 72.5591 0.399999 73.6791 0.479999C74.8257 0.533332 75.8124 0.653332 76.6391 0.839999C77.1724 0.919999 77.5591 1.04 77.7991 1.2C78.0657 1.36 78.2257 1.54667 78.2791 1.76C78.3591 1.94667 78.3991 2.14667 78.3991 2.36V3.16C78.2124 3 77.8791 2.86667 77.3991 2.76C76.9191 2.65333 76.3591 2.56 75.7191 2.48C75.1057 2.4 74.4657 2.33333 73.7991 2.28C73.1324 2.2 72.4924 2.16 71.8791 2.16C71.2924 2.13333 70.7991 2.12 70.3991 2.12C68.5324 2.12 67.0657 2.34667 65.9991 2.8C64.9324 3.25333 64.1591 4.04 63.6791 5.16C63.2257 6.25333 62.9991 7.81333 62.9991 9.84C62.9991 11.7867 63.1991 13.32 63.5991 14.44C64.0257 15.56 64.7324 16.36 65.7191 16.84C66.7324 17.2933 68.0924 17.52 69.7991 17.52C71.3457 17.52 72.5724 17.3733 73.4791 17.08C74.3857 16.7867 75.0524 16.2267 75.4791 15.4C75.9057 14.5733 76.1324 13.4133 76.1591 11.92C76.1857 11.5733 76.1857 11.28 76.1591 11.04C76.1591 10.7733 76.1591 10.5733 76.1591 10.44H68.5991C68.5991 9.96 68.6257 9.6 68.6791 9.36C68.7591 9.12 68.9057 8.94667 69.1191 8.84C69.3591 8.73333 69.7191 8.68 70.1991 8.68H79.1591V11.84C79.1591 13.28 78.9857 14.48 78.6391 15.44C78.3191 16.3733 77.7857 17.1333 77.0391 17.72C76.3191 18.28 75.3457 18.68 74.1191 18.92C72.9191 19.16 71.4391 19.28 69.6791 19.28ZM83.9763 19V1.88C83.9763 1.4 84.0429 1.06667 84.1763 0.88C84.3096 0.693333 84.6029 0.6 85.0563 0.6H100.936V2.36H87.0563V8.48H99.7763V10.24H87.0563V17.24H100.936V19H83.9763ZM105.773 19V2.24C105.773 1.52 105.826 1.06667 105.933 0.88C106.066 0.693333 106.426 0.6 107.013 0.6H109.693L121.613 15.84L121.733 15.92V0.6H124.093C124.066 0.626666 124.04 0.733332 124.013 0.919999C123.986 1.08 123.973 1.26667 123.973 1.48C123.973 1.66667 123.973 1.85333 123.973 2.04V17.48C123.973 18.1733 123.88 18.6 123.693 18.76C123.533 18.92 123.173 19 122.613 19H120.133L108.093 3.64L108.053 3.48V19H105.773ZM130.734 19C130.734 16.1467 130.734 13.2933 130.734 10.44C130.734 7.58667 130.734 4.73333 130.734 1.88C130.734 1.58667 130.747 1.36 130.774 1.2C130.827 1.01333 130.921 0.866666 131.054 0.759999C131.214 0.653333 131.467 0.6 131.814 0.6H133.814V19H130.734ZM140.461 19V1.88C140.461 1.4 140.527 1.06667 140.661 0.88C140.794 0.693333 141.087 0.6 141.541 0.6H157.421V2.36H143.541V8.48H156.261V10.24H143.541V17.24H157.421V19H140.461Z" fill="white"/>
</svg>
